<svg width="161" height="32" viewBox="0 0 161 32" fill="none" xmlns="http://www.w3.org/2000/svg">
<path d="M160.59 11.996C160.748 15.3427 158.718 17.9892 154.782 20.1186C150.843 22.2499 145.05 23.8288 137.822 25.0418C123.371 27.467 103.286 28.4148 81.0752 29.4625C77.1249 29.6488 73.2427 29.8449 69.4471 30.0367C51.8966 30.9232 36.1989 31.7161 24.1894 31.0176C16.8843 30.5928 10.9744 29.617 6.85196 27.7914C2.74124 25.971 0.446509 23.3269 0.268754 19.5585C0.091018 15.7906 2.12666 12.9425 6.04778 10.7432C9.98006 8.53774 15.7719 7.00998 23.0046 5.89925C34.8969 4.07293 50.6028 3.38444 68.1623 2.6147C71.9563 2.44838 75.8368 2.27828 79.7841 2.09208C101.995 1.04437 122.08 0.0973583 136.695 1.15149C144.005 1.67873 149.921 2.70526 154.043 4.45629C158.162 6.20581 160.433 8.64943 160.59 11.996Z" fill="#054777" stroke="#054777" stroke-width="0.5"/>
</svg>
