<svg width="161" height="29" viewBox="0 0 161 29" fill="none" xmlns="http://www.w3.org/2000/svg">
<path d="M160.75 14.664C160.75 18.0144 158.597 20.5623 154.565 22.5039C150.53 24.4472 144.669 25.7514 137.392 26.6224C122.843 28.364 102.736 28.3644 80.5 28.3644C76.5453 28.3644 72.6582 28.3774 68.8578 28.3901C51.285 28.4486 35.5674 28.501 23.6042 27.2375C16.3272 26.4689 10.4698 25.2158 6.43798 23.1979C2.4176 21.1858 0.25 18.4365 0.25 14.664C0.25 10.8919 2.41758 8.14283 6.43797 6.13078C10.4698 4.11302 16.3272 2.85986 23.6042 2.09116C35.5694 0.827209 51.2902 0.879525 68.8666 0.938016C72.6641 0.950653 76.5483 0.963579 80.5 0.963579C102.736 0.963579 122.843 0.963999 137.392 2.70561C144.669 3.57669 150.53 4.88083 154.565 6.82415C158.597 8.7658 160.75 11.3137 160.75 14.664Z" stroke="#054777" stroke-width="0.5"/>
</svg>
