<svg width="323" height="57" viewBox="0 0 323 57" fill="none" xmlns="http://www.w3.org/2000/svg">
<path d="M322.058 28.3889C322.058 35.1012 317.745 40.2059 309.668 44.0959C301.583 47.9893 289.841 50.6021 275.262 52.3473C246.113 55.8365 205.828 55.8373 161.28 55.8373C153.357 55.8373 145.569 55.8633 137.955 55.8887C102.748 56.006 71.2584 56.111 47.2903 53.5795C32.7111 52.0396 20.976 49.529 12.8983 45.4864C4.84359 41.4551 0.500868 35.947 0.500868 28.3889C0.500868 20.8316 4.84356 15.3239 12.8983 11.2928C20.976 7.25025 32.7112 4.73958 47.2903 3.19951C71.2623 0.667222 102.759 0.772036 137.972 0.88922C145.581 0.91454 153.363 0.940436 161.28 0.940436C205.828 0.940436 246.113 0.941278 275.262 4.43055C289.841 6.17574 301.583 8.78854 309.668 12.6819C317.745 16.572 322.058 21.6766 322.058 28.3889Z" stroke="white" stroke-width="1.00174"/>
</svg>
