<svg width="323" height="64" viewBox="0 0 323 64" fill="none" xmlns="http://www.w3.org/2000/svg">
<path d="M321.749 24.041C322.065 30.7459 317.997 36.0481 310.112 40.3144C302.22 44.5844 290.614 47.7476 276.134 50.1777C247.181 55.0366 206.941 56.9355 162.442 59.0346C154.528 59.4079 146.75 59.8008 139.146 60.1849C103.984 61.961 72.5337 63.5496 48.473 62.1503C33.8375 61.299 21.9971 59.3442 13.7379 55.6866C5.50216 52.0394 0.90473 46.742 0.548601 39.1923C0.192512 31.6434 4.27087 25.9372 12.1267 21.531C20.0049 17.1124 31.6088 14.0516 46.0992 11.8262C69.9253 8.16724 101.392 6.78788 136.572 5.24571C144.173 4.91251 151.947 4.5717 159.855 4.19867C204.355 2.0996 244.595 0.202291 273.876 2.31422C288.521 3.37052 300.373 5.42715 308.632 8.9353C316.884 12.4404 321.433 17.3361 321.749 24.041Z" stroke="white" stroke-width="1.00174"/>
</svg>
