<svg width="323" height="64" viewBox="0 0 323 64" fill="none" xmlns="http://www.w3.org/2000/svg">
<path d="M321.749 24.0407C322.065 30.7456 317.997 36.0478 310.112 40.3141C302.22 44.5841 290.614 47.7473 276.134 50.1775C247.181 55.0363 206.941 56.9352 162.442 59.0343C154.528 59.4076 146.75 59.8005 139.146 60.1846C103.984 61.9607 72.5337 63.5494 48.473 62.15C33.8375 61.2988 21.9971 59.3439 13.7379 55.6863C5.50216 52.0391 0.90473 46.7418 0.548601 39.192C0.192512 31.6431 4.27087 25.9369 12.1267 21.5308C20.0049 17.1121 31.6088 14.0513 46.0992 11.826C69.9253 8.16696 101.392 6.7876 136.572 5.24544C144.173 4.91223 151.947 4.57143 159.855 4.19839C204.355 2.09933 244.595 0.202016 273.876 2.31395C288.521 3.37025 300.373 5.42688 308.632 8.93503C316.884 12.4401 321.433 17.3359 321.749 24.0407Z" fill="white" stroke="white" stroke-width="1.00174"/>
</svg>
