<svg width="161" height="32" viewBox="0 0 161 32" fill="none" xmlns="http://www.w3.org/2000/svg">
<path d="M160.59 11.9963C160.748 15.3429 158.718 17.9894 154.782 20.1189C150.843 22.2502 145.05 23.829 137.822 25.042C123.371 27.4672 103.286 28.415 81.0752 29.4627C77.1249 29.6491 73.2427 29.8452 69.4471 30.0369C51.8966 30.9234 36.1989 31.7164 24.1894 31.0179C16.8843 30.593 10.9744 29.6173 6.85196 27.7917C2.74124 25.9712 0.446509 23.3271 0.268754 19.5588C0.091018 15.7909 2.12666 12.9427 6.04778 10.7435C9.98006 8.53798 15.7719 7.01023 23.0046 5.8995C34.8969 4.07317 50.6028 3.38469 68.1623 2.61494C71.9563 2.44863 75.8368 2.27852 79.7841 2.09233C101.995 1.04461 122.08 0.0976025 136.695 1.15174C144.005 1.67897 149.921 2.7055 154.043 4.45654C158.162 6.20606 160.433 8.64967 160.59 11.9963Z" stroke="#054777" stroke-width="0.5"/>
</svg>
