<svg width="16" height="16" viewBox="0 0 16 16" fill="none" xmlns="http://www.w3.org/2000/svg">
<path fill-rule="evenodd" clip-rule="evenodd" d="M12.4773 0.727613H2.97573C1.58351 0.727613 0.454896 1.85629 0.454896 3.24859V12.7507C0.454896 14.143 1.58351 15.2717 2.97573 15.2717H12.4773C13.8695 15.2717 14.9981 14.143 14.9981 12.7507V3.24859C14.9981 1.85629 13.8695 0.727613 12.4773 0.727613ZM2.97573 0.533691C1.47642 0.533691 0.260986 1.74919 0.260986 3.24859V12.7507C0.260986 14.2501 1.47642 15.4656 2.97573 15.4656H12.4773C13.9766 15.4656 15.1921 14.2501 15.1921 12.7507V3.24859C15.1921 1.74919 13.9766 0.533691 12.4773 0.533691H2.97573Z" fill="#054777"/>
<path fill-rule="evenodd" clip-rule="evenodd" d="M0 3.24891C0 1.6052 1.33242 0.272705 2.97603 0.272705H12.4776C14.1212 0.272705 15.4537 1.6052 15.4537 3.24891V12.751C15.4537 14.3948 14.1212 15.7273 12.4776 15.7273H2.97603C1.33242 15.7273 0 14.3948 0 12.751V3.24891ZM2.97603 0.989244C1.72813 0.989244 0.716497 2.00093 0.716497 3.24891V12.751C0.716497 13.999 1.72813 15.0107 2.97603 15.0107H12.4776C13.7255 15.0107 14.7372 13.999 14.7372 12.751V3.24891C14.7372 2.00093 13.7255 0.989244 12.4776 0.989244H2.97603Z" fill="#054777"/>
<path fill-rule="evenodd" clip-rule="evenodd" d="M7.72751 11.5875C9.70885 11.5875 11.315 9.98131 11.315 7.99997C11.315 6.01862 9.70885 4.41243 7.72751 4.41243C5.74616 4.41243 4.13997 6.01862 4.13997 7.99997C4.13997 9.98131 5.74616 11.5875 7.72751 11.5875ZM7.72751 11.7814C9.81595 11.7814 11.509 10.0884 11.509 7.99997C11.509 5.91152 9.81595 4.21851 7.72751 4.21851C5.63906 4.21851 3.94604 5.91152 3.94604 7.99997C3.94604 10.0884 5.63906 11.7814 7.72751 11.7814Z" fill="#054777"/>
<path fill-rule="evenodd" clip-rule="evenodd" d="M3.68506 8.00029C3.68506 5.76753 5.49496 3.95752 7.7276 3.95752C9.96023 3.95752 11.7701 5.76753 11.7701 8.00029C11.7701 10.2331 9.96023 12.0431 7.7276 12.0431C5.49496 12.0431 3.68506 10.2331 3.68506 8.00029ZM7.7276 4.67406C5.89068 4.67406 4.40156 6.16326 4.40156 8.00029C4.40156 9.83732 5.89068 11.3265 7.7276 11.3265C9.56452 11.3265 11.0536 9.83732 11.0536 8.00029C11.0536 6.16326 9.56452 4.67406 7.7276 4.67406Z" fill="#054777"/>
<path d="M12.8649 3.34579C12.8649 3.82774 12.4742 4.21843 11.9923 4.21843C11.5103 4.21843 11.1196 3.82774 11.1196 3.34579C11.1196 2.86384 11.5103 2.47314 11.9923 2.47314C12.4742 2.47314 12.8649 2.86384 12.8649 3.34579Z" fill="#054777"/>
</svg>
