<svg width="16" height="14" viewBox="0 0 16 14" fill="none" xmlns="http://www.w3.org/2000/svg">
<path fill-rule="evenodd" clip-rule="evenodd" d="M14.9213 0.80619C14.9355 0.748334 14.8804 0.697474 14.8239 0.716316L0.580928 5.46397C0.516375 5.48548 0.510825 5.57464 0.57221 5.60399L4.24236 7.35928L11.5332 3.2465C11.6156 3.20004 11.7196 3.22154 11.7768 3.29685C11.834 3.37215 11.8267 3.47812 11.7599 3.54498L6.61033 8.69453L11.8002 13.0194C11.8431 13.0552 11.9087 13.0337 11.9221 12.9794L14.9213 0.80619ZM6.43516 9.04098L7.9872 10.3343L5.53372 12.3462L6.43516 9.04098ZM5.23381 12.0082L4.45934 7.67121L10.5143 4.2556L6.19638 8.5735C6.17311 8.59677 6.15631 8.62572 6.14765 8.65748L5.23381 12.0082ZM4.08041 7.70115L0.408997 5.94526C0.0406811 5.76911 0.0739844 5.2342 0.461304 5.10509L14.7043 0.357442C15.0434 0.244389 15.3741 0.54956 15.2886 0.896684L12.2894 13.0699C12.2091 13.3955 11.8157 13.5247 11.558 13.31L8.28309 10.5809L5.3152 13.0146C5.2633 13.0572 5.19274 13.0691 5.12977 13.0458C5.0668 13.0226 5.02087 12.9677 5.00907 12.9016L4.08041 7.70115Z" fill="#054777"/>
<path fill-rule="evenodd" clip-rule="evenodd" d="M14.657 0.213823C15.1094 0.0630357 15.5504 0.470066 15.4363 0.933049L12.4371 13.1062C12.3301 13.5406 11.8053 13.7129 11.4617 13.4265L8.28296 10.7776L5.41192 13.1319C5.31845 13.2086 5.19135 13.2299 5.07794 13.1881L5.12662 13.0562L5.07794 13.1881C4.96454 13.1462 4.88181 13.0474 4.86056 12.9284L3.94557 7.80442L0.34427 6.08206C-0.146979 5.84712 -0.102559 5.13367 0.414036 4.96147L14.657 0.213823ZM15.1421 0.860559C15.1991 0.629294 14.9788 0.425981 14.7528 0.5013L0.509862 5.24895C0.251818 5.33497 0.229631 5.69134 0.475013 5.80869L4.14643 7.56459C4.19045 7.58564 4.22164 7.6266 4.23021 7.67464L5.15887 12.8751C5.16122 12.8883 5.17036 12.8992 5.18289 12.9038C5.19541 12.9084 5.20945 12.9061 5.21978 12.8976L8.18766 10.4639C8.24387 10.4178 8.32489 10.4181 8.38073 10.4646L11.6556 13.1937C11.8273 13.3368 12.0895 13.2507 12.1429 13.0338L15.1421 0.860559ZM14.7748 0.770063L14.7748 0.770211L14.7748 0.770063ZM14.7419 0.903695L11.8046 12.8255L6.83543 8.68447L11.8677 3.65224C11.9881 3.53182 12.0011 3.34096 11.8981 3.20533C11.7951 3.06971 11.6077 3.03098 11.4594 3.11466L4.23724 7.1887L0.807625 5.54844L14.7419 0.903695ZM0.638379 5.4675C0.638328 5.46748 0.638277 5.46745 0.638226 5.46743L0.605498 5.53586L0.638227 5.46743L0.638379 5.4675ZM14.7766 0.572697C14.9463 0.516121 15.1118 0.668839 15.069 0.842555L12.0698 13.0158C12.0297 13.1787 11.8328 13.2434 11.7038 13.1359L6.51398 8.81105C6.48127 8.7838 6.46154 8.74404 6.45961 8.70152C6.45768 8.65899 6.47373 8.61762 6.50384 8.58752L11.6534 3.43797C11.6667 3.42467 11.6681 3.40358 11.6567 3.3886C11.6454 3.37362 11.6247 3.36934 11.6083 3.37859L4.31745 7.49137C4.2744 7.51565 4.22222 7.51741 4.17763 7.49609L0.507484 5.7408C0.323165 5.65265 0.33983 5.38496 0.533661 5.32035L14.7766 0.572697ZM10.6356 4.16408C10.6814 4.22441 10.6756 4.30929 10.6221 4.36285L6.30416 8.68075C6.29953 8.68538 6.29619 8.69114 6.29447 8.69746L5.38063 12.0482C5.36198 12.1166 5.29845 12.1629 5.22767 12.1597C5.15689 12.1565 5.09775 12.1047 5.0853 12.035L4.31083 7.69796C4.29951 7.63459 4.32947 7.57099 4.38554 7.53936L10.4405 4.12375C10.5065 4.08654 10.5898 4.10376 10.6356 4.16408ZM4.62803 7.75049L5.26532 11.3193L6.00212 8.61773C6.01772 8.56054 6.04797 8.5084 6.08989 8.46648L9.62428 4.93209L4.62803 7.75049ZM6.39032 8.89657C6.43951 8.88109 6.49319 8.89169 6.5328 8.9247L8.08484 10.2181C8.11955 10.247 8.13954 10.2899 8.13936 10.3351C8.13918 10.3802 8.11885 10.423 8.08392 10.4516L5.63044 12.4635C5.57946 12.5053 5.50728 12.5094 5.45196 12.4735C5.39663 12.4376 5.37084 12.3701 5.38819 12.3065L6.28963 9.00123C6.3032 8.95149 6.34113 8.91205 6.39032 8.89657ZM6.51994 9.30844L5.80549 11.9281L7.75005 10.3335L6.51994 9.30844Z" fill="#054777"/>
</svg>
