<svg width="22" height="14" viewBox="0 0 22 14" fill="none" xmlns="http://www.w3.org/2000/svg">
<path fill-rule="evenodd" clip-rule="evenodd" d="M1.0257 2.11367C0.886507 1.5704 1.3326 1.09082 1.88518 1.09082H4.52386C4.60113 1.09082 4.67011 1.1377 4.69636 1.20804C5.09156 2.26736 5.77536 3.85537 6.54068 5.17557C6.92376 5.8364 7.32298 6.4226 7.71202 6.8412C8.02793 7.18113 8.31338 7.38456 8.55856 7.45417V3.24087C8.46564 2.85182 8.19116 2.16129 7.72315 1.73912C7.65689 1.67936 7.63328 1.60114 7.62624 1.54134C7.61892 1.47919 7.62653 1.41571 7.64305 1.35941C7.65939 1.30372 7.6878 1.24371 7.73228 1.19392C7.77671 1.14417 7.85108 1.09082 7.95287 1.09082H12.2265C12.5303 1.09082 12.7766 1.32925 12.7766 1.62337V6.55122C12.8559 6.52055 12.954 6.47059 13.0708 6.39287C13.3024 6.23876 13.5911 5.9862 13.9256 5.5982C14.5945 4.82227 15.4356 3.51799 16.3633 1.41806C16.4494 1.22306 16.6486 1.09082 16.8719 1.09082H19.929C20.2254 1.09082 20.4982 1.33141 20.4377 1.65218C20.2578 2.60715 19.4458 4.5489 17.1962 7.14033C17.1284 7.21838 17.1381 7.33612 17.2189 7.40336C17.8772 7.95142 18.7391 8.75191 19.4752 9.61477C20.2057 10.4712 20.8345 11.4142 20.9915 12.2447C21.0526 12.5678 20.773 12.8068 20.4792 12.8068H17.0104C16.8242 12.8068 16.6528 12.7164 16.5499 12.5689C16.1638 12.0151 15.5706 11.266 14.9098 10.6183C14.2422 9.96399 13.5321 9.43996 12.9129 9.29568C12.8787 9.2877 12.8498 9.29622 12.8251 9.3183C12.798 9.34243 12.7766 9.38372 12.7766 9.43404V12.3476C12.7766 12.5908 12.604 12.8181 12.3363 12.8572C10.2765 13.1583 6.04496 12.2781 3.08043 6.68145C2.54299 5.84761 1.48966 3.92458 1.0257 2.11367ZM1.88518 1.44585C1.54492 1.44585 1.30599 1.73268 1.3817 2.02821C1.83398 3.79353 2.87023 5.68604 3.39562 6.49971C3.39838 6.50399 3.40095 6.50838 3.40333 6.51287C6.30228 11.9913 10.3896 12.7827 12.2815 12.5062C12.351 12.496 12.4099 12.4344 12.4099 12.3476V9.43404C12.4099 9.15377 12.6575 8.87098 12.9988 8.95051C13.725 9.11974 14.497 9.70846 15.1707 10.3688C15.8512 11.0357 16.4584 11.803 16.8539 12.3702C16.8899 12.4219 16.9483 12.4518 17.0104 12.4518H20.4792C20.531 12.4518 20.5744 12.4314 20.6012 12.4037C20.6265 12.3777 20.6377 12.3455 20.6307 12.3086C20.4918 11.5738 19.9174 10.6908 19.1923 9.84082C18.4728 8.99731 17.6267 8.2111 16.9797 7.67253C16.7475 7.47924 16.7176 7.13979 16.9154 6.91193C19.1404 4.3489 19.9122 2.46242 20.0769 1.58849C20.0841 1.55018 20.0726 1.51802 20.0484 1.49279C20.0228 1.46608 19.9808 1.44585 19.929 1.44585H16.8719C16.7996 1.44585 16.7306 1.48961 16.7005 1.55764C15.7641 3.67732 14.9063 5.01477 14.2072 5.82567C13.8577 6.23109 13.545 6.50821 13.2786 6.68544C13.0171 6.85947 12.7827 6.94883 12.5932 6.94883C12.492 6.94883 12.4099 6.86935 12.4099 6.77131V1.62337C12.4099 1.52533 12.3277 1.44585 12.2265 1.44585H7.99944C7.99819 1.44911 7.99699 1.45263 7.99589 1.4564C7.99334 1.46508 7.99163 1.47393 7.99081 1.48219C7.99032 1.48714 7.99019 1.49142 7.99027 1.49494C8.53192 1.99402 8.82583 2.76804 8.92098 3.1825C8.92388 3.19514 8.92535 3.20805 8.92535 3.22101V7.65889C8.92535 7.75693 8.84324 7.83641 8.74195 7.83641C8.29014 7.83641 7.8453 7.51547 7.43933 7.07864C7.0241 6.63186 6.60951 6.01983 6.2208 5.3493C5.47045 4.0549 4.80059 2.51442 4.39546 1.44585H1.88518Z" fill="#054777" stroke="#054777" stroke-width="0.318182" stroke-linejoin="round"/>
</svg>
