<svg width="16" height="16" viewBox="0 0 16 16" fill="none" xmlns="http://www.w3.org/2000/svg">
<path fill-rule="evenodd" clip-rule="evenodd" d="M4.1339 3.75021C4.49807 3.44332 5.03665 3.4667 5.37285 3.80399L6.18674 4.6205C6.65869 5.09398 6.65869 5.86002 6.18674 6.33349L5.8879 6.63329C5.80451 6.71695 5.78411 6.84049 5.83698 6.93893C6.25481 7.71677 7.23912 9.0647 8.6814 9.80004C8.78122 9.85094 8.90468 9.8293 8.98754 9.74616L9.28248 9.45027C9.75659 8.97464 10.5269 8.97464 11.001 9.45027L12.0733 10.526C12.323 10.7766 12.323 11.1819 12.0733 11.4325C11.2297 12.2788 10.0624 12.8437 8.90523 12.4214C7.83003 12.029 6.46296 11.2389 5.0517 9.76971C3.42013 8.07111 2.96071 6.62478 2.96761 5.63352C2.97315 4.83718 3.56154 4.23254 4.1339 3.75021ZM5.24066 3.93576C4.97297 3.6672 4.54414 3.64859 4.25418 3.89294C3.67995 4.37684 3.15914 4.93179 3.15425 5.63482C3.14777 6.56522 3.57892 7.96698 5.18631 9.64041C6.57876 11.0901 7.92198 11.8639 8.96921 12.246C10.0269 12.632 11.1203 12.1242 11.9411 11.3007C12.1182 11.123 12.1182 10.8355 11.9411 10.6578L10.8688 9.58204C10.4676 9.17958 9.81584 9.17958 9.41468 9.58204L9.11974 9.87793C8.9835 10.0146 8.77328 10.0564 8.59662 9.96633C7.10825 9.20748 6.10056 7.82403 5.67256 7.02725C5.57778 6.85082 5.61882 6.63885 5.75571 6.50152L6.05455 6.20172C6.45389 5.80109 6.45389 5.1529 6.05455 4.75227L5.24066 3.93576Z" fill="#054777"/>
<path fill-rule="evenodd" clip-rule="evenodd" d="M3.96559 3.54998C4.43365 3.15554 5.12588 3.18559 5.558 3.61911L6.37189 4.43562C6.94549 5.01107 6.94549 5.9421 6.37189 6.51756L6.07305 6.81736C6.0718 6.81862 6.07094 6.81973 6.07036 6.82063C6.47539 7.57223 7.42445 8.86417 8.79696 9.5652C8.79823 9.5647 8.80023 9.56361 8.80255 9.56128L9.09749 9.26539C9.67371 8.68731 10.6099 8.68731 11.1861 9.26539L12.2585 10.3412C12.6098 10.6937 12.6098 11.264 12.2585 11.6166C11.3832 12.4947 10.1124 13.1396 8.81572 12.6664C7.70138 12.2598 6.3009 11.4469 4.86333 9.95032C3.19792 8.21649 2.69889 6.70776 2.70638 5.6313C2.71283 4.70435 3.3958 4.03015 3.96559 3.54998ZM5.05567 4.11983C4.88389 3.94749 4.60871 3.93555 4.42264 4.09235C3.84576 4.57849 3.41961 5.06386 3.41563 5.63623C3.40975 6.48144 3.80131 7.82081 5.37484 9.45898C6.74097 10.8812 8.05079 11.6323 9.05887 12.0002C9.9773 12.3353 10.9673 11.9072 11.7561 11.1158C11.8316 11.0401 11.8316 10.9176 11.7561 10.8419L10.6838 9.76611C10.3848 9.46609 9.89888 9.46609 9.59983 9.76611L9.30488 10.062C9.09413 10.2734 8.76249 10.3438 8.478 10.1987C6.9251 9.40697 5.88468 7.97378 5.44244 7.1505C5.28885 6.86458 5.35918 6.52886 5.57072 6.31664L5.86956 6.01684C6.16725 5.71818 6.16725 5.23499 5.86956 4.93634L5.05567 4.11983Z" fill="#054777"/>
<path fill-rule="evenodd" clip-rule="evenodd" d="M1.56347 11.8752L0.832821 14.9806C0.799308 15.123 0.93527 15.2469 1.07397 15.2003L3.95992 14.2303L4.03338 14.2737C5.11601 14.9124 6.37839 15.279 7.72695 15.279C11.7472 15.279 15.0063 12.0199 15.0063 7.99965C15.0063 3.9794 11.7472 0.72034 7.72695 0.72034C3.7067 0.72034 0.447635 3.9794 0.447635 7.99965C0.447635 9.39681 0.841067 10.7015 1.52309 11.8096L1.56347 11.8752ZM15.1929 7.99965C15.1929 12.123 11.8503 15.4656 7.72695 15.4656C6.34413 15.4656 5.04911 15.0897 3.93853 14.4344L1.13344 15.3772C0.856033 15.4704 0.584107 15.2227 0.651133 14.9378L1.36414 11.9075C0.664525 10.7708 0.260986 9.43233 0.260986 7.99965C0.260986 3.87632 3.60361 0.533691 7.72695 0.533691C11.8503 0.533691 15.1929 3.87632 15.1929 7.99965Z" fill="#054777"/>
<path fill-rule="evenodd" clip-rule="evenodd" d="M0 7.99998C0 3.73232 3.45962 0.272705 7.72727 0.272705C11.9949 0.272705 15.4545 3.73232 15.4545 7.99998C15.4545 12.2676 11.9949 15.7273 7.72727 15.7273C6.33941 15.7273 5.03632 15.3611 3.91008 14.7201L1.21701 15.6252C0.745422 15.7837 0.283147 15.3626 0.397093 14.8783L1.08565 11.9519C0.396094 10.7954 0 9.44356 0 7.99998ZM7.72727 0.981972C3.85133 0.981972 0.709267 4.12404 0.709267 7.99998C0.709267 9.3474 1.08855 10.6049 1.74595 11.673L1.84285 11.8304L1.11824 14.9101L3.99018 13.9449L4.16648 14.0489C5.21 14.6646 6.42668 15.018 7.72727 15.018C11.6032 15.018 14.7453 11.8759 14.7453 7.99998C14.7453 4.12404 11.6032 0.981972 7.72727 0.981972Z" fill="#054777"/>
</svg>
